<svg xmlns="http://www.w3.org/2000/svg" fill="none" viewBox="83 171 109 105">
<path d="M137.5 276C152.103 276 165.793 270.599 176.093 260.677C186.394 250.755 192 237.567 192 223.5C192 209.433 186.394 196.245 176.093 186.323C165.793 176.401 152.103 171 137.5 171C122.897 171 109.207 176.401 98.9067 186.323C88.6065 196.245 83 209.433 83 223.5C83 237.567 88.6065 250.755 98.9067 260.677C109.207 270.599 122.897 276 137.5 276ZM140.629 267.083C139.586 267.208 138.543 267.208 137.5 267.208C136.066 267.208 134.632 267.083 133.197 266.957C128.504 259.923 124.983 252.388 122.897 244.475H145.975C146.757 246.359 148.191 248.117 149.886 249.248C147.67 255.528 144.541 261.431 140.629 267.083V267.083ZM153.016 264.571C155.493 260.175 157.449 255.779 159.013 251.132C162.794 250.378 165.793 247.866 167.227 244.475H177.267C172.051 253.644 163.316 260.803 153.016 264.571ZM182.743 223.5C182.743 227.645 182.091 231.664 181.048 235.557H166.967C166.184 233.925 164.88 232.417 163.316 231.287C163.577 228.524 163.707 225.761 163.707 222.998C163.707 219.104 163.446 215.211 162.925 211.443H180.917C182.221 215.211 182.743 219.355 182.743 223.5V223.5ZM177.267 202.525H161.36C159.665 195.617 157.188 189.086 153.798 182.806C163.707 186.449 172.051 193.608 177.267 202.525ZM154.58 222.998C154.58 225.133 154.45 227.268 154.319 229.403C150.669 230.157 147.67 232.417 146.236 235.557H121.072C120.55 231.789 120.159 227.896 120.159 224.128C120.159 221.742 120.289 219.355 120.55 216.969C123.94 216.341 126.678 214.206 128.373 211.443H153.798C154.319 215.211 154.58 219.104 154.58 222.998V222.998ZM134.11 180.043C135.283 179.917 136.457 179.917 137.5 179.917C138.804 179.917 140.108 179.917 141.411 180.043C146.105 187.077 149.626 194.612 151.712 202.525H129.025C128.243 200.39 126.809 198.506 124.983 197.124C127.33 191.096 130.329 185.444 134.11 180.043ZM121.724 182.555C119.507 186.574 117.551 190.844 115.987 195.115C111.945 195.868 108.685 198.757 107.382 202.4H97.8636C102.949 193.482 111.423 186.323 121.724 182.555ZM92.2572 223.5C92.2572 219.355 92.9091 215.211 94.0825 211.443H108.294C109.077 212.824 110.25 214.08 111.554 215.085C111.293 218.099 111.032 221.114 111.032 224.128C111.032 228.022 111.293 231.789 111.815 235.557H94.0825C92.7787 231.664 92.2572 227.645 92.2572 223.5ZM113.379 244.349C115.074 251.132 117.551 257.788 120.941 264.068C111.032 260.3 102.818 253.267 97.7333 244.349H113.379Z" fill="#FD2D01"/>
</svg>