<svg xmlns="http://www.w3.org/2000/svg" fill="none" viewBox="219 179 671.75 111.06">
<path d="M259.611 265.703C248.083 265.703 238.433 261.558 230.66 253.268C222.887 244.979 219 234.631 219 222.225C219 210.044 222.887 199.78 230.66 191.434C238.433 183.145 248.083 179 259.611 179C271.191 179 281.133 182.863 289.434 190.589L278.647 203.192C273.095 198.568 266.75 196.256 259.611 196.256C252.314 196.312 246.418 198.765 241.923 203.615C237.481 208.408 235.26 214.555 235.26 222.055C235.26 230.119 237.508 236.52 242.002 241.257C246.497 245.994 252.393 248.362 259.69 248.362C265.56 248.362 270.054 247.15 273.174 244.725V229.837L262.387 229.922V213.681H289.434V254.199C281.185 261.868 271.244 265.703 259.611 265.703ZM318.544 207.845V214.273C322.457 210.044 327.19 207.929 332.742 207.929C334.487 207.929 336.153 208.07 337.739 208.352L335.36 224.339C333.615 222.647 331.103 221.745 327.824 221.632C324.123 221.914 321.03 224.762 318.544 230.176V265.703H303.394V209.621L318.544 207.845ZM372.243 266.295C364.364 266.295 357.78 263.475 352.492 257.836C347.257 252.197 344.64 245.204 344.64 236.858C344.64 228.456 347.257 221.435 352.492 215.796C357.78 210.157 364.364 207.337 372.243 207.337C380.122 207.337 386.705 210.157 391.993 215.796C397.281 221.435 399.925 228.456 399.925 236.858C399.925 245.261 397.281 252.253 391.993 257.836C386.705 263.475 380.122 266.295 372.243 266.295ZM372.243 252.338C376.314 252.338 379.646 250.843 382.237 247.855C384.828 244.922 386.123 241.257 386.123 236.858C386.123 232.46 384.828 228.794 382.237 225.862C379.646 222.873 376.288 221.379 372.163 221.379C368.092 221.379 364.76 222.873 362.169 225.862C359.631 228.794 358.362 232.46 358.362 236.858C358.362 241.257 359.631 244.922 362.169 247.855C364.76 250.843 368.118 252.338 372.243 252.338ZM442.915 245.232V207.845H458.065V265.703H442.915V260.458C439.266 263.955 434.93 265.703 429.907 265.703C423.033 265.703 417.798 263.475 414.202 259.02C410.553 254.565 408.729 249.462 408.729 243.71V207.845H423.958V239.65C423.958 243.484 424.857 246.473 426.655 248.616C428.453 250.759 431.176 251.887 434.825 252C437.997 251.774 440.694 249.518 442.915 245.232ZM486.143 290.064L470.994 289.98V209.621L486.143 207.845V212.497C490.215 209.395 494.207 207.845 498.12 207.845C506.422 207.845 513.006 210.749 517.871 216.557C522.788 222.309 525.247 229.048 525.247 236.774C525.247 244.499 522.788 251.238 517.871 256.99C513.006 262.799 506.422 265.703 498.12 265.703C492.674 265.308 488.682 263.729 486.143 260.966V290.064ZM486.143 231.529V240.918C486.884 247.404 490.691 251.21 497.565 252.338C506.237 251.605 511.129 246.811 512.239 237.958C511.869 227.131 506.978 221.52 497.565 221.125C490.691 222.309 486.884 225.777 486.143 231.529ZM560.544 266.295C552.665 266.295 546.108 263.475 540.873 257.836C535.585 252.197 532.941 245.204 532.941 236.858C532.941 228.456 535.585 221.435 540.873 215.796C546.108 210.157 552.665 207.337 560.544 207.337C568.423 207.337 575.006 210.157 580.294 215.796C585.582 221.435 588.226 228.456 588.226 236.858C588.226 245.261 585.582 252.253 580.294 257.836C575.006 263.475 568.423 266.295 560.544 266.295ZM560.544 252.338C564.668 252.338 568 250.843 570.538 247.855C573.129 244.922 574.424 241.257 574.424 236.858C574.424 232.46 573.129 228.794 570.538 225.862C568 222.873 564.642 221.379 560.464 221.379C556.393 221.379 553.061 222.873 550.47 225.862C547.932 228.794 546.663 232.46 546.663 236.858C546.663 241.257 547.932 244.922 550.47 247.855C553.061 250.843 556.419 252.338 560.544 252.338ZM613.528 228.738V265.703H598.299V209.621L613.528 207.845V213.004C616.913 209.621 621.249 207.929 626.536 207.929C633.358 207.929 638.593 210.128 642.241 214.527C646.207 210.128 652.156 207.929 660.088 207.929C666.962 207.929 672.224 210.128 675.872 214.527C679.468 218.982 681.266 224.114 681.266 229.922V265.703H666.116V233.898C666.116 230.063 665.297 227.074 663.657 224.931C662.018 222.845 659.374 221.745 655.726 221.632C652.711 221.858 650.12 223.973 647.952 227.976C647.741 229.161 647.635 230.373 647.635 231.614V265.703H632.485V233.898C632.485 230.063 631.666 227.074 630.026 224.931C628.387 222.845 625.743 221.745 622.095 221.632C618.763 221.858 615.908 224.226 613.528 228.738ZM701.651 224.678L695.702 214.865C702.576 210.241 710.534 207.929 719.577 207.929C726.081 207.929 731.21 209.846 734.964 213.681C738.772 217.572 740.675 223.352 740.675 231.022V265.703H725.526V261.135C721.084 264.18 717.091 265.703 713.548 265.703C706.357 265.703 700.937 264.067 697.288 260.797C693.692 257.526 691.895 253.015 691.895 247.263C691.895 241.849 693.613 237.027 697.05 232.798C700.435 228.569 705.934 226.454 713.548 226.454C717.091 226.454 721.084 227.61 725.526 229.922V228.146C725.42 223.916 722.511 221.604 716.8 221.209C710.296 221.209 705.246 222.365 701.651 224.678ZM725.526 248.362V241.849C724.098 238.86 720.661 237.366 715.214 237.366C708.71 238.155 705.273 240.862 704.903 245.486C705.273 250.054 708.71 252.535 715.214 252.93C720.661 252.93 724.098 251.407 725.526 248.362ZM769.468 228.992V265.703H754.239V209.621L769.468 207.845V213.089C773.116 209.649 777.452 207.929 782.476 207.929C789.35 207.929 794.585 210.128 798.181 214.527C801.777 218.982 803.575 224.114 803.575 229.922V265.703H788.425V233.898C788.425 230.063 787.526 227.074 785.728 224.931C783.877 222.845 781.127 221.745 777.479 221.632C774.359 221.858 771.689 224.311 769.468 228.992ZM831.495 265.703H816.345V207.845H831.495V265.703ZM815.79 194.057C815.79 196.369 816.503 198.286 817.931 199.809C819.412 201.331 821.421 202.093 823.959 202.093C826.445 202.093 828.428 201.331 829.908 199.809C831.336 198.286 832.05 196.369 832.05 194.057C832.05 191.745 831.336 189.799 829.908 188.22C828.428 186.641 826.392 185.852 823.801 185.852C821.368 185.852 819.412 186.641 817.931 188.22C816.503 189.799 815.79 191.745 815.79 194.057ZM851.721 224.678L845.772 214.865C852.646 210.241 860.604 207.929 869.647 207.929C876.151 207.929 881.306 209.846 885.114 213.681C888.868 217.572 890.745 223.352 890.745 231.022V265.703H875.595V261.135C871.206 264.18 867.241 265.703 863.698 265.703C856.453 265.703 851.033 264.067 847.437 260.797C843.789 257.526 841.965 253.015 841.965 247.263C841.965 241.849 843.683 237.027 847.12 232.798C850.504 228.569 856.03 226.454 863.698 226.454C867.188 226.454 871.154 227.61 875.595 229.922V228.146C875.542 223.916 872.661 221.604 866.95 221.209C860.446 221.209 855.369 222.365 851.721 224.678ZM875.595 248.362V241.849C874.168 238.86 870.731 237.366 865.284 237.366C858.78 238.155 855.343 240.862 854.973 245.486C855.343 250.054 858.78 252.535 865.284 252.93C870.731 252.93 874.168 251.407 875.595 248.362Z" fill="#FD2D01"/>
</svg>