<svg xmlns="http://www.w3.org/2000/svg" viewBox="203.96 180.73 459.75 636.53">
<!--! Font Awesome Pro 6.1.2 by @fontawesome - https://fontawesome.com License - https://fontawesome.com/license (Commercial License) Copyright 2022 Fonticons, Inc. -->
<path fill="#fd2d01" d="M 135.1999969482422 17.690000534057617 C 140.60000610351562 6.8480000495910645 151.6999969482422 0 163.8000030517578 0 L 284.20001220703125 0 C 296.29998779296875 0 307.3999938964844 6.8480000495910645 312.79998779296875 17.690000534057617 L 320 32 L 416 32 C 433.70001220703125 32 448 46.33000183105469 448 64 C 448 81.66999816894531 433.70001220703125 96 416 96 L 32 96 C 14.329999923706055 96 0 81.66999816894531 0 64 C 0 46.33000183105469 14.329999923706055 32 32 32 L 128 32 L 135.1999969482422 17.690000534057617 Z " transform="matrix(0.939693 0.34202 -0.34202 0.939693 242.726 180.734)" class=""/>
<path fill="#fd2d01" d="M 394.79998779296875 466.1000061035156 C 393.20001220703125 492.29998779296875 372.29998779296875 512 346.8999938964844 512 L 101.0999984741211 512 C 75.75 512 54.77000045776367 492.29998779296875 53.189998626708984 466.1000061035156 L 31.100000381469727 128 L 416 128 L 394.79998779296875 466.1000061035156 Z " transform="matrix(1 0 0 1 172.858 305.268)" class="" style="color : #fd2d01"/>




</svg>